<svg width="232" height="236" viewBox="0 0 232 236" fill="none" xmlns="http://www.w3.org/2000/svg">
<path d="M22.9881 0H14.9961C6.71338 0 9.34601e-05 6.71329 9.34601e-05 14.996V23C9.34601e-05 24.6571 1.34176 25.996 2.99609 25.996C4.65042 25.996 5.99209 24.6571 5.99209 23V14.996C5.99209 10.0346 10.0269 6.004 14.9961 6.004H22.9881C24.6484 6.004 25.9961 4.65911 25.9961 3.008C25.9961 1.34628 24.6498 0 22.9881 0Z" fill="#202244"/>
<path d="M209.004 0H216.996C225.279 0 231.992 6.71329 231.992 14.996V23C231.992 24.6571 230.65 25.996 228.996 25.996C227.342 25.996 226 24.6571 226 23V14.996C226 10.0346 221.965 6.004 216.996 6.004H209.004C207.344 6.004 205.996 4.65911 205.996 3.008C205.996 1.34628 207.342 0 209.004 0Z" fill="#202244"/>
<path d="M22.9881 235.996H14.9961C6.71338 235.996 9.34601e-05 229.283 9.34601e-05 221V212.996C9.34601e-05 211.339 1.34176 210 2.99609 210C4.65042 210 5.99209 211.339 5.99209 212.996V221C5.99209 225.961 10.0269 229.992 14.9961 229.992H22.9881C24.6484 229.992 25.9961 231.337 25.9961 232.988C25.9961 234.65 24.6498 235.996 22.9881 235.996Z" fill="#202244"/>
<path d="M209.004 235.996H216.996C225.279 235.996 231.992 229.283 231.992 221V212.996C231.992 211.339 230.65 210 228.996 210C227.342 210 226 211.339 226 212.996V221C226 225.961 221.965 229.992 216.996 229.992H209.004C207.344 229.992 205.996 231.337 205.996 232.988C205.996 234.65 207.342 235.996 209.004 235.996Z" fill="#202244"/>
<path fill-rule="evenodd" clip-rule="evenodd" d="M138.358 193C138.065 193 137.683 192.91 137.39 192.85C125.465 189.542 117.643 185.117 109.475 177.092C99.0129 166.78 93.1554 152.658 93.2154 137.95C93.2154 125.793 103.558 115.893 116.3 115.893C129.073 115.893 139.415 125.793 139.415 137.95C139.415 145.975 146.383 152.515 155 152.515C163.64 152.515 170.615 145.975 170.615 137.95C170.615 109.683 146.24 86.71 116.24 86.71C94.9404 86.71 75.4329 98.575 66.6729 116.943C63.7404 123.04 62.2479 130.158 62.2479 137.95C62.2479 143.808 62.7429 153.04 67.2579 165.025C68.0154 166.982 67.0179 169.15 65.0904 169.825C63.1254 170.59 60.9579 169.533 60.2829 167.658C56.6829 158.162 54.8079 148.09 54.8079 137.95C54.8079 128.958 56.5329 120.783 59.9004 113.665C69.8904 92.7175 92.0079 79.15 116.24 79.15C150.373 79.15 178.115 105.46 178.115 137.86C178.115 150.025 167.743 159.925 155 159.925C142.258 159.925 131.915 150.025 131.915 137.86C131.915 129.835 124.94 123.333 116.3 123.333C107.683 123.333 100.715 129.835 100.715 137.86C100.715 150.693 105.665 162.708 114.748 171.7C121.865 178.765 128.69 182.658 139.265 185.59C141.29 186.085 142.4 188.193 141.875 190.158C141.493 191.89 139.94 193 138.358 193ZM153.448 177.557C144.508 177.557 136.633 175.307 130.183 170.882C118.993 163.292 112.34 150.985 112.34 137.95C112.34 135.842 113.983 134.2 116.09 134.2C118.175 134.2 119.84 135.842 119.84 137.95C119.84 148.525 125.233 158.485 134.375 164.642C139.708 168.242 145.948 169.975 153.448 169.975C155.233 169.975 158.218 169.735 161.24 169.21C163.258 168.857 165.193 170.207 165.575 172.285C165.958 174.34 164.608 176.275 162.5 176.65C158.218 177.475 154.468 177.557 153.448 177.557ZM99.6579 191.418C98.6604 191.448 97.7229 191.035 97.0179 190.307C90.5154 183.775 86.9754 179.583 81.9654 170.5C76.7754 161.275 74.0829 150.025 74.0829 137.95C74.0829 115.683 93.1255 97.525 116.533 97.525C139.94 97.525 158.983 115.683 158.983 137.95C158.983 140.058 157.34 141.7 155.233 141.7C153.125 141.7 151.483 140.058 151.483 137.95C151.483 119.785 135.808 105.025 116.533 105.025C97.2579 105.025 81.5829 119.785 81.5829 137.95C81.5829 148.765 83.9829 158.725 88.5579 166.84C93.3579 175.45 96.6729 179.11 102.44 184.975C103.85 186.467 103.85 188.807 102.44 190.307C101.623 191.035 100.625 191.418 99.6579 191.418ZM52.7829 100.893C51.3729 100.923 50.0904 100.127 49.4154 98.8675C48.7704 97.6375 48.8829 96.115 49.7079 94.975C57.1179 84.4825 66.5829 76.225 77.8329 70.45C101.383 58.2925 131.533 58.2325 155.143 70.36C166.393 76.165 175.858 84.34 183.268 94.735C183.853 95.56 184.093 96.5875 183.913 97.5475C183.77 98.545 183.208 99.4225 182.39 100.015C180.665 101.215 178.318 100.832 177.118 99.1C170.555 89.815 161.855 82.225 151.715 77.0425C130.183 66.025 102.643 66.025 81.2004 77.1325C71.0079 82.375 62.4504 89.875 55.7154 99.34C55.1004 100.36 53.9829 100.893 52.7829 100.893ZM160.093 61.5175C159.508 61.5175 158.893 61.3675 158.368 61.075C143.983 53.665 131.533 50.5 116.623 50.5C101.765 50.5 87.6429 54.0175 74.8404 61.075C73.0254 62.0425 70.7679 61.3675 69.7479 59.5825C68.7504 57.7375 69.4254 55.48 71.2404 54.4825C85.1829 46.9 100.475 43 116.623 43C132.583 43 146.533 46.5175 161.825 54.4C163.7 55.36 164.375 57.6175 163.408 59.4325C162.793 60.6925 161.533 61.5175 160.093 61.5175Z" fill="#0961F5"/>
</svg>
